<?xml version="1.0" encoding="UTF-8" standalone="no"?>
<!-- Created with Inkscape (http://www.inkscape.org/) -->

<svg
   xmlns:dc="http://purl.org/dc/elements/1.1/"
   xmlns:cc="http://creativecommons.org/ns#"
   xmlns:rdf="http://www.w3.org/1999/02/22-rdf-syntax-ns#"
   xmlns:svg="http://www.w3.org/2000/svg"
   xmlns="http://www.w3.org/2000/svg"
   xmlns:sodipodi="http://sodipodi.sourceforge.net/DTD/sodipodi-0.dtd"
   xmlns:inkscape="http://www.inkscape.org/namespaces/inkscape"
   width="409.58334"
   height="255.21211"
   id="svg5156"
   version="1.1"
   inkscape:version="0.48.3.1 r9886"
   sodipodi:docname="schematic.svg">
  <defs
     id="defs5158">
    <marker
       inkscape:stockid="Arrow1Mend"
       orient="auto"
       refY="0"
       refX="0"
       id="Arrow1Mend"
       style="overflow:visible">
      <path
         id="path3994"
         d="M 0,0 5,-5 -12.5,0 5,5 0,0 z"
         style="fill-rule:evenodd;stroke:#000000;stroke-width:1pt"
         transform="matrix(-0.4,0,0,-0.4,-4,0)"
         inkscape:connector-curvature="0" />
    </marker>
    <marker
       inkscape:stockid="Tail"
       orient="auto"
       refY="0"
       refX="0"
       id="Tail"
       style="overflow:visible">
      <g
         id="g4021"
         transform="scale(-1.2,-1.2)">
        <path
           id="path4023"
           d="M -3.8048674,-3.9585227 0.54352094,0"
           style="fill:none;stroke:#000000;stroke-width:0.80000001;stroke-linecap:round"
           inkscape:connector-curvature="0" />
        <path
           id="path4025"
           d="M -1.2866832,-3.9585227 3.0617053,0"
           style="fill:none;stroke:#000000;stroke-width:0.80000001;stroke-linecap:round"
           inkscape:connector-curvature="0" />
        <path
           id="path4027"
           d="M 1.3053582,-3.9585227 5.6537466,0"
           style="fill:none;stroke:#000000;stroke-width:0.80000001;stroke-linecap:round"
           inkscape:connector-curvature="0" />
        <path
           id="path4029"
           d="M -3.8048674,4.1775838 0.54352094,0.21974226"
           style="fill:none;stroke:#000000;stroke-width:0.80000001;stroke-linecap:round"
           inkscape:connector-curvature="0" />
        <path
           id="path4031"
           d="M -1.2866832,4.1775838 3.0617053,0.21974226"
           style="fill:none;stroke:#000000;stroke-width:0.80000001;stroke-linecap:round"
           inkscape:connector-curvature="0" />
        <path
           id="path4033"
           d="M 1.3053582,4.1775838 5.6537466,0.21974226"
           style="fill:none;stroke:#000000;stroke-width:0.80000001;stroke-linecap:round"
           inkscape:connector-curvature="0" />
      </g>
    </marker>
    <marker
       inkscape:stockid="Arrow1Send"
       orient="auto"
       refY="0"
       refX="0"
       id="Arrow1Send"
       style="overflow:visible">
      <path
         id="path4000"
         d="M 0,0 5,-5 -12.5,0 5,5 0,0 z"
         style="fill-rule:evenodd;stroke:#000000;stroke-width:1pt"
         transform="matrix(-0.2,0,0,-0.2,-1.2,0)"
         inkscape:connector-curvature="0" />
    </marker>
    <marker
       inkscape:stockid="Arrow2Mend"
       orient="auto"
       refY="0"
       refX="0"
       id="Arrow2Mend"
       style="overflow:visible">
      <path
         id="path3848"
         style="fill-rule:evenodd;stroke-width:0.625;stroke-linejoin:round"
         d="M 8.7185878,4.0337352 -2.2072895,0.01601326 8.7185884,-4.0017078 c -1.7454984,2.3720609 -1.7354408,5.6174519 -6e-7,8.035443 z"
         transform="scale(-0.6,-0.6)"
         inkscape:connector-curvature="0" />
    </marker>
  </defs>
  <sodipodi:namedview
     id="base"
     pagecolor="#ffffff"
     bordercolor="#666666"
     borderopacity="1.0"
     inkscape:pageopacity="0.0"
     inkscape:pageshadow="2"
     inkscape:zoom="1.979899"
     inkscape:cx="148.68996"
     inkscape:cy="118.66776"
     inkscape:document-units="px"
     inkscape:current-layer="layer1"
     showgrid="true"
     fit-margin-top="10"
     fit-margin-left="10"
     fit-margin-right="10"
     fit-margin-bottom="10"
     inkscape:window-width="1315"
     inkscape:window-height="744"
     inkscape:window-x="51"
     inkscape:window-y="24"
     inkscape:window-maximized="1">
    <inkscape:grid
       type="xygrid"
       id="grid5164"
       empspacing="5"
       visible="true"
       enabled="true"
       snapvisiblegridlinesonly="true"
       originx="-119.43181px"
       originy="-549.28788px" />
  </sodipodi:namedview>
  <metadata
     id="metadata5161">
    <rdf:RDF>
      <cc:Work
         rdf:about="">
        <dc:format>image/svg+xml</dc:format>
        <dc:type
           rdf:resource="http://purl.org/dc/dcmitype/StillImage" />
        <dc:title />
      </cc:Work>
    </rdf:RDF>
  </metadata>
  <g
     inkscape:label="Layer 1"
     inkscape:groupmode="layer"
     id="layer1"
     transform="translate(-119.43181,-247.86218)">
    <path
       style="fill:none;stroke:#800080;stroke-width:5;stroke-linecap:butt;stroke-linejoin:miter;stroke-miterlimit:4;stroke-opacity:1;stroke-dasharray:none"
       d="m 516.51515,339.96825 -64.54545,-21.51516 -21.51516,15.06061 0,27.9697 L 495,382.99855"
       id="path5799"
       inkscape:connector-curvature="0" />
    <path
       style="fill:none;stroke:#008000;stroke-width:5;stroke-linecap:butt;stroke-linejoin:miter;stroke-miterlimit:4;stroke-opacity:1;stroke-dasharray:none"
       d="m 150.75758,490.5743 43.0303,0"
       id="path5166"
       inkscape:connector-curvature="0" />
    <path
       style="fill:none;stroke:#008000;stroke-width:5;stroke-linecap:butt;stroke-linejoin:miter;stroke-miterlimit:4;stroke-opacity:1;stroke-dasharray:none"
       d="m 172.27273,490.5743 0,-86.06061 43.0303,-43.03029"
       id="path5168"
       inkscape:connector-curvature="0" />
    <path
       style="fill:none;stroke:#0000ff;stroke-width:5;stroke-linecap:butt;stroke-linejoin:miter;stroke-miterlimit:4;stroke-opacity:1;stroke-dasharray:none"
       d="M 215.30303,361.4834 322.87878,296.93794"
       id="path5170"
       inkscape:connector-curvature="0" />
    <path
       style="fill:none;stroke:#ff0000;stroke-width:5;stroke-linecap:butt;stroke-linejoin:miter;stroke-miterlimit:4;stroke-opacity:1;stroke-dasharray:none"
       d="M 322.87878,296.93794 431.12341,333.8171"
       id="path5172"
       inkscape:connector-curvature="0"
       sodipodi:nodetypes="cc" />
    <path
       sodipodi:type="arc"
       style="fill:#ffffff;fill-opacity:1;stroke:#008000;stroke-width:2.32394361;stroke-miterlimit:4;stroke-dasharray:none"
       id="path5174"
       sodipodi:cx="175"
       sodipodi:cy="307.36218"
       sodipodi:rx="2"
       sodipodi:ry="2"
       d="m 177,307.36218 c 0,1.10457 -0.89543,2 -2,2 -1.10457,0 -2,-0.89543 -2,-2 0,-1.10457 0.89543,-2 2,-2 1.10457,0 2,0.89543 2,2 z"
       transform="matrix(2.1515151,0,0,2.1515151,-161.21212,-299.81099)" />
    <path
       d="m 177,307.36218 c 0,1.10457 -0.89543,2 -2,2 -1.10457,0 -2,-0.89543 -2,-2 0,-1.10457 0.89543,-2 2,-2 1.10457,0 2,0.89543 2,2 z"
       sodipodi:ry="2"
       sodipodi:rx="2"
       sodipodi:cy="307.36218"
       sodipodi:cx="175"
       id="path5176"
       style="fill:#ffffff;fill-opacity:1;stroke:#0000ff;stroke-width:2.32394361;stroke-miterlimit:4;stroke-dasharray:none"
       sodipodi:type="arc"
       transform="matrix(2.1515151,0,0,2.1515151,-53.636363,-364.35645)" />
    <path
       sodipodi:type="arc"
       style="fill:none;stroke:#000000;stroke-width:2.32394361;stroke-miterlimit:4;stroke-dasharray:none;marker-mid:none;marker-end:none"
       id="path3023"
       sodipodi:cx="40.5"
       sodipodi:cy="42.5"
       sodipodi:rx="15"
       sodipodi:ry="15"
       d="m 55.5,42.5 c 0,8.284271 -6.715729,15 -15,15 -8.284271,0 -15,-6.715729 -15,-15 0,-6.420714 4.086567,-12.129408 10.164511,-14.199227"
       transform="matrix(2.1515151,0,0,2.1515151,128.16666,270.044)"
       sodipodi:start="0"
       sodipodi:end="4.3841612"
       sodipodi:open="true" />
    <path
       style="fill:#000000;stroke:#000000;stroke-width:5;stroke-linecap:butt;stroke-linejoin:miter;stroke-miterlimit:4;stroke-opacity:1;stroke-dasharray:none"
       d="m 193.78788,331.36218 15.06061,-6.45454 -6.45455,12.90908 z"
       id="path5791"
       inkscape:connector-curvature="0"
       sodipodi:nodetypes="cccc" />
    <path
       sodipodi:open="true"
       sodipodi:end="4.3841612"
       sodipodi:start="0"
       transform="matrix(-2.1515151,0,0,2.1515151,410.01515,205.49854)"
       d="m 55.5,42.5 c 0,8.284271 -6.715729,15 -15,15 -8.284271,0 -15,-6.715729 -15,-15 0,-6.420714 4.086567,-12.129408 10.164511,-14.199227"
       sodipodi:ry="15"
       sodipodi:rx="15"
       sodipodi:cy="42.5"
       sodipodi:cx="40.5"
       id="path5793"
       style="fill:none;stroke:#000000;stroke-width:2.32394361;stroke-miterlimit:4;stroke-dasharray:none;marker-mid:none;marker-end:none"
       sodipodi:type="arc" />
    <path
       sodipodi:nodetypes="cccc"
       inkscape:connector-curvature="0"
       id="path5795"
       d="m 344.39393,266.81672 -15.06059,-6.45454 6.45454,12.90909 z"
       style="fill:#000000;stroke:#000000;stroke-width:5;stroke-linecap:butt;stroke-linejoin:miter;stroke-miterlimit:4;stroke-opacity:1;stroke-dasharray:none" />
    <path
       transform="matrix(2.1515151,0,0,2.1515151,53.939394,-327.7807)"
       sodipodi:type="arc"
       style="fill:#ffffff;fill-opacity:1;stroke:#ff0000;stroke-width:2.32394361;stroke-miterlimit:4;stroke-dasharray:none"
       id="path5797"
       sodipodi:cx="175"
       sodipodi:cy="307.36218"
       sodipodi:rx="2"
       sodipodi:ry="2"
       d="m 177,307.36218 c 0,1.10457 -0.89543,2 -2,2 -1.10457,0 -2,-0.89543 -2,-2 0,-1.10457 0.89543,-2 2,-2 1.10457,0 2,0.89543 2,2 z" />
    <g
       id="g5805"
       transform="matrix(2.1515151,0,0,2.1515151,-161.21212,-299.81099)"
       style="stroke-width:2.32394361;stroke-miterlimit:4;stroke-dasharray:none">
      <path
         sodipodi:nodetypes="cccc"
         transform="translate(134.5,264.86218)"
         inkscape:connector-curvature="0"
         id="path5801"
         d="m 5.5,87.500002 c -5,2 -5,3 0,5 10,2 20,2 30,0 5,-2 5,-3 0,-5"
         style="fill:none;stroke:#000000;stroke-width:2.32394361;stroke-linecap:butt;stroke-linejoin:miter;stroke-miterlimit:4;stroke-opacity:1;stroke-dasharray:none" />
      <path
         style="fill:#000000;stroke:#000000;stroke-width:2.32394361;stroke-linecap:butt;stroke-linejoin:miter;stroke-miterlimit:4;stroke-opacity:1;stroke-dasharray:none"
         d="m 169,354.36218 -3.6863,-3.9257 5.37678,0.30047 z"
         id="path5803"
         inkscape:connector-curvature="0"
         sodipodi:nodetypes="cccc" />
    </g>
    <g
       id="g5809"
       transform="matrix(0.90926961,-1.9499349,1.9499349,0.90926961,-425.94894,298.77815)"
       style="stroke-width:2.32394361;stroke-miterlimit:4;stroke-dasharray:none">
      <path
         style="fill:none;stroke:#000000;stroke-width:2.32394361;stroke-linecap:butt;stroke-linejoin:miter;stroke-miterlimit:4;stroke-opacity:1;stroke-dasharray:none"
         d="m 5.5,87.500002 c -5,2 -5,3 0,5 10,2 20,2 30,0 5,-2 5,-3 0,-5"
         id="path5811"
         inkscape:connector-curvature="0"
         transform="translate(134.5,264.86218)"
         sodipodi:nodetypes="cccc" />
      <path
         sodipodi:nodetypes="cccc"
         inkscape:connector-curvature="0"
         id="path5813"
         d="m 169,354.36218 -3.6863,-3.9257 5.37678,0.30047 z"
         style="fill:#000000;stroke:#000000;stroke-width:2.32394361;stroke-linecap:butt;stroke-linejoin:miter;stroke-miterlimit:4;stroke-opacity:1;stroke-dasharray:none" />
    </g>
  </g>
</svg>
